{"title":"Rock Of Ages 2012 EXTENDED 720p BRRip x264 AC3 [VX] [P2PDL]","uid":7686113,"size":739699544,"categoryP":"video","categoryS":"hd___movies","magnet":"?xt=urn:btih:56769d8b05619556f322a8a5f1482505f6c19ef0&amp;dn=Rock+Of+Ages+2012+EXTENDED+720p+BRRip+x264+AC3+%5BVX%5D+%5BP2PDL%5D&amp;tr=udp%3A%2F%2Ftracker.openbittorrent.com%3A80&amp;tr=udp%3A%2F%2Fopen.demonii.com%3A1337&amp;tr=udp%3A%2F%2Ftracker.coppersurfer.tk%3A6969&amp;tr=udp%3A%2F%2Fexodus.desync.com%3A6969","seeders":0,"leechers":1,"uploader":"Vitamin_X","files":-1,"time":1348951569,"description":" &lt;a href=&quot;http://www.shotpix.com/images/97086844412374261548.jpg&quot; rel=&quot;nofollow&quot; target=&quot;_NEW&quot;&gt;http://www.shotpix.com/images/97086844412374261548.jpg&lt;/a&gt;\n\n\nRelease Title: Rock of Ages (2012)\n\n\t\t\t\t\t\nGenre: Comedy | Drama | Musical\nIMDb Rating: 6.2/10 http://www.imdb.com/title/tt1336608/\n\n\nPlot: A small town girl and a city boy meet on the Sunset Strip, while pursuing their Hollywood dreams.  \n\n\nDirector: Adam Shankman\n\n\nStars: Julianne Hough, Diego Boneta and Tom Cruise. \n\n\nRated: Rated PG-13 for sexual content, suggestive dancing, some heavy drinking, and language.\n\n\nGeneral\nFormat                         : Matroska\nFormat version                 : Version 2\nFile size                      : 693 MiB\nDuration                       : 2h 16mn\nOverall bit rate               : 711 Kbps\nSource                         : EXTENDED.720p.BluRay.X264-BLOW(Thanks)               \n\nVideo\nID                             : 1\nFormat                         : AVC\nFormat/Info                    : Advanced Video Codec\nCodec ID                       : V_MPEG4/ISO/AVC\nDuration                       : 2h 16mn\nBit rate                       : 582 Kbps\nWidth                          : 1 280 pixels\nHeight                         : 528 pixels\nDisplay aspect ratio           : 2.40:1\nFrame rate mode                : Constant\nFrame rate                     : 23.976 fps\nColor space                    : YUV\nChroma subsampling             : 4:2:0\nStream size                    : 554 MiB (80%)\nWriting library                : x264 core 125 r2208 d9d2288\nDefault                        : Yes\nForced                         : No\n\nAudio\nID                             : 2\nFormat                         : AC-3\nFormat/Info                    : Audio Coding 3\nCodec ID                       : A_AC3\nDuration                       : 2h 16mn\nBit rate mode                  : Constant\nBit rate                       : 128 Kbps\nChannel(s)                     : 2 channels\nChannel positions              : Front: L R\nSampling rate                  : 48.0 KHz\nStream size                    : 125 MiB (18%)\nLanguage                       : English\nDefault                        : Yes\nForced                         : No\n\nSubtitle                       : Yes (English)\n\n\n\nScreens:\n\n &lt;a href=&quot;\nhttp://www.shotpix.com/images/87422034269698915554.png&quot; rel=&quot;nofollow&quot; target=&quot;_NEW&quot;&gt;\nhttp://www.shotpix.com/images/87422034269698915554.png&lt;/a&gt; &lt;a href=&quot;\nhttp://www.shotpix.com/images/94757134222241018140.png&quot; rel=&quot;nofollow&quot; target=&quot;_NEW&quot;&gt;\nhttp://www.shotpix.com/images/94757134222241018140.png&lt;/a&gt; &lt;a href=&quot;\nhttp://www.shotpix.com/images/23082636740898197401.png&quot; rel=&quot;nofollow&quot; target=&quot;_NEW&quot;&gt;\nhttp://www.shotpix.com/images/23082636740898197401.png&lt;/a&gt; &lt;a href=&quot;\nhttp://www.shotpix.com/images/63874068853623780876.png&quot; rel=&quot;nofollow&quot; target=&quot;_NEW&quot;&gt;\nhttp://www.shotpix.com/images/63874068853623780876.png&lt;/a&gt; &lt;a href=&quot;\nhttp://www.shotpix.com/images/72079345829761636544.png&quot; rel=&quot;nofollow&quot; target=&quot;_NEW&quot;&gt;\nhttp://www.shotpix.com/images/72079345829761636544.png&lt;/a&gt; &lt;a href=&quot;\nhttp://www.shotpix.com/images/84265555563556646676.png&quot; rel=&quot;nofollow&quot; target=&quot;_NEW&quot;&gt;\nhttp://www.shotpix.com/images/84265555563556646676.png&lt;/a&gt;\n\n\n\n------------------------------------------------------------------------\n\n\nRecommend to you to use VLC player. Install shark007 codecs in case of any kind of problem in playback (For non-VLC\nMedia Player users). Alternatively, install Core AVC codecs, the fastest decoder that there is coupled with Community\nCenter Codec Pack and play on Windows Media Player ClassicCheck sample to be sure. Enjoy!\n\n\nGreets to: srkfan, VYTO, MgB, staff members at ExtraTorrent, TPB,KAT, 1337x, PublicHD, Ahashare,\nSilverTorrent, TorrentMafia, P2PDL, and all others.\n\n\nEncoder Notes: Looking For Early Access To Anything You Can Provide DVDScr, R5, DVDRips, BluRay, Direct Audio, Early Music\nReleases, Seedboxes, Links, Dedicated Servers anything u can provide, Advance / Promo CDs/DVDs. If You Got anything to\noffer contact me at &quot;&lt;a class=&quot;__cf_email__&quot; href=&quot;/cdn-cgi/l/email-protection&quot; data-cfemail=&quot;b4d7dbdac0d5d7c0f4c0dddacdd99ad1c1&quot;&gt;[email&amp;#160;protected]&lt;/a&gt;&lt;script cf-hash='f9e31' type=&quot;text/javascript&quot;&gt;\n/* &lt;![CDATA[ */!function(){try{var t=&quot;currentScript&quot;in document?document.currentScript:function(){for(var t=document.getElementsByTagName(&quot;script&quot;),e=t.length;e--;)if(t[e].getAttribute(&quot;cf-hash&quot;))return t[e]}();if(t&amp;&amp;t.previousSibling){var e,r,n,i,c=t.previousSibling,a=c.getAttribute(&quot;data-cfemail&quot;);if(a){for(e=&quot;&quot;,r=parseInt(a.substr(0,2),16),n=2;a.length-n;n+=2)i=parseInt(a.substr(n,2),16)^r,e+=String.fromCharCode(i);e=document.createTextNode(e),c.parentNode.replaceChild(e,c)}}}catch(u){}}();/* ]]&gt; */&lt;/script&gt;&quot;\n\n &lt;a href=&quot;\nhttp://www&quot; rel=&quot;nofollow&quot; target=&quot;_NEW&quot;&gt;\nhttp://www&lt;/a&gt;   .   facebook  .   com  /  p2pdl","torrent":{"xt":"urn:btih:56769d8b05619556f322a8a5f1482505f6c19ef0","amp;dn":"Rock+Of+Ages+2012+EXTENDED+720p+BRRip+x264+AC3+%5BVX%5D+%5BP2PDL%5D","amp;tr":["udp%3A%2F%2Ftracker.openbittorrent.com%3A80","udp%3A%2F%2Fopen.demonii.com%3A1337","udp%3A%2F%2Ftracker.coppersurfer.tk%3A6969","udp%3A%2F%2Fexodus.desync.com%3A6969"],"infoHash":"56769d8b05619556f322a8a5f1482505f6c19ef0","infoHashBuffer":{"type":"Buffer","data":[86,118,157,139,5,97,149,86,243,34,168,165,241,72,37,5,246,193,158,240]},"announce":[],"urlList":[]}}